<svg xmlns="http://www.w3.org/2000/svg" width="400" height="250" viewBox="0 0 400 250">
  <rect width="400" height="250" fill="#0a0a0c" rx="8"/>
  <rect x="0" y="0" width="400" height="35" fill="#121216" rx="8"/>
  <text x="15" y="22" fill="#fafafa" font-family="sans-serif" font-size="13" font-weight="600">Retry History</text>
  <text x="15" y="60" fill="#a1a1aa" font-family="sans-serif" font-size="11">Track workflow retries and recovery attempts</text>
  <rect x="15" y="75" width="110" height="55" rx="6" fill="#121216" stroke="#1f1f23" stroke-width="1"/>
  <text x="25" y="95" fill="#71717a" font-family="sans-serif" font-size="9">Total Retries</text>
  <text x="25" y="118" fill="#fafafa" font-family="sans-serif" font-size="18" font-weight="700" font-family="monospace">12</text>
  <rect x="140" y="75" width="110" height="55" rx="6" fill="#121216" stroke="#1f1f23" stroke-width="1"/>
  <text x="150" y="95" fill="#71717a" font-family="sans-serif" font-size="9">Avg Retries/Run</text>
  <text x="150" y="118" fill="#fafafa" font-family="sans-serif" font-size="18" font-weight="700" font-family="monospace">0.29</text>
  <rect x="265" y="75" width="110" height="55" rx="6" fill="#121216" stroke="#1f1f23" stroke-width="1"/>
  <text x="275" y="95" fill="#71717a" font-family="sans-serif" font-size="9">Recovery Rate</text>
  <text x="275" y="118" fill="#fafafa" font-family="sans-serif" font-size="18" font-weight="700" font-family="monospace">58%</text>
  <text x="15" y="160" fill="#a1a1aa" font-family="sans-serif" font-size="11" font-weight="500">Recent Retry Attempts</text>
  <circle cx="25" cy="180" r="4" fill="#10b981"/>
  <line x1="25" y1="184" x2="25" y2="210" stroke="#27272a" stroke-width="1"/>
  <text x="38" y="184" fill="#d4d4d8" font-family="sans-serif" font-size="11">frontend-app · Attempt 2 — Added env fallback (resolved)</text>
  <circle cx="25" cy="210" r="4" fill="#ef4444"/>
  <line x1="25" y1="214" x2="25" y2="230" stroke="#27272a" stroke-width="1"/>
  <text x="38" y="214" fill="#d4d4d8" font-family="sans-serif" font-size="11">frontend-app · Attempt 1 — Missing API_KEY (failed)</text>
</svg>
